<svg width="672" height="670" viewBox="0 0 672 670" fill="none" xmlns="http://www.w3.org/2000/svg">
<path d="M516.249 51.5607C534.082 62.9 550.806 75.8959 566.199 90.3757C567.147 91.2951 567.9 92.3954 568.415 93.6114C568.929 94.8273 569.194 96.1343 569.194 97.4546C569.194 98.775 568.929 100.082 568.415 101.298C567.9 102.514 567.147 103.614 566.199 104.534L490.319 180.414C488.481 182.183 486.029 183.171 483.479 183.171C480.928 183.171 478.476 182.183 476.638 180.414L469.639 174.051H468.207L462.639 169.755L453.89 163.392C441.4 154.409 427.956 146.834 413.803 140.803C393.456 132.783 371.992 127.954 350.171 126.486C342.488 126.088 334.789 126.088 327.105 126.486C275.113 128.868 225.869 150.516 188.964 187.216C152.059 223.915 130.135 273.037 127.463 325.015C125.99 354.048 130.654 383.066 141.153 410.175C151.651 437.284 167.746 461.875 188.389 482.343L150.052 520.681L98.5105 571.745L91.8293 564.904L88.8068 561.564C86.4532 559.188 84.2231 556.692 82.1255 554.087C80.2166 551.966 78.4667 549.898 76.876 547.883C75.1261 545.815 73.3762 543.747 71.7855 541.52C70.1947 539.293 68.4448 537.384 66.8541 535.157L61.2863 527.521C35.004 490.583 16.6438 448.609 7.359 404.236L5.45007 394.373C4.4956 388.805 3.54113 383.397 2.90482 378.465L1.95036 369.875C1.95036 364.307 0.99589 358.74 0.677734 353.013C0.677734 351.104 0.677734 349.354 0.677734 347.604V346.014C0.677734 342.514 0.677734 339.173 0.677734 335.673C0.677734 332.174 0.677734 328.038 0.677734 324.22C0.677734 320.402 0.677734 320.243 0.677734 318.334C0.677734 316.425 0.677734 312.607 0.677734 309.744C0.756337 308.419 0.756337 307.091 0.677734 305.767C0.677734 304.812 0.677734 303.858 0.677734 302.903V301.313C1.6322 292.086 2.74574 283.019 4.4956 273.792C6.30047 263.917 8.63701 254.146 11.495 244.522C11.495 244.522 11.495 244.522 11.495 243.567C30.2869 188.355 61.8748 138.373 103.678 97.7033C145.481 57.0338 196.313 26.8315 252.021 9.5642H253.134C260.929 7.33712 269.042 5.74634 276.518 4.31464C283.995 2.88294 288.449 2.24663 294.494 1.61032H300.062L302.448 0.655853H309.448H350.171H356.375H362.102H365.443H367.829H370.852L377.692 1.45124C378.645 1.3751 379.602 1.3751 380.555 1.45124H381.987H386.918H387.873L393.441 2.40571H395.827H398.849L405.69 3.83741L409.985 4.79187L419.211 7.01896H420.166L429.71 9.72328L442.914 13.8593L450.231 16.5636H451.822H452.777L455.958 17.8362L460.889 19.7452L464.866 21.495L468.207 22.7677H469.321L477.911 26.7446L480.615 27.8581L482.683 28.8126L485.069 30.0852L487.296 31.1988L488.887 31.9942L490.955 33.1077L494.773 35.1757L497.955 36.9256L504 40.2662H504.954C508.136 42.0161 511.158 43.925 514.181 45.993L516.249 51.5607Z" fill="url(#paint0_linear_177_4889)" fill-opacity="0.1"/>
<path d="M671.669 314.039V332.174C670.854 389.968 655.56 446.635 627.185 496.992C598.811 547.348 558.263 589.786 509.25 620.422C469.449 645.473 424.761 661.743 378.17 668.146L369.739 669.1H367.035H361.308H357.808C354.468 669.1 351.286 669.1 347.946 669.1H326.788H319.948H310.562H304.676H300.54L293.223 667.191H285.428L278.429 666.078H274.133L260.135 663.055L252.658 661.305L248.681 660.192L244.068 658.919C239.932 657.806 235.955 656.692 231.819 655.26L226.728 653.51L222.91 651.283L217.184 649.056L213.366 647.625L205.73 644.443L198.253 641.261C193.64 639.193 189.027 636.966 184.573 634.58H183.141L176.619 631.08C172.96 629.172 169.46 627.104 165.961 625.035L158.325 619.468H157.211L148.144 613.582H147.189C129.632 601.265 113.327 587.252 98.5117 571.745L150.053 520.203L188.391 481.866C207.685 501.338 230.658 516.781 255.974 527.295C281.29 537.809 308.443 543.185 335.856 543.111C344.205 543.071 352.544 542.54 360.831 541.52L367.512 540.724L372.284 539.77L378.329 538.656L385.17 537.225L390.578 535.634C394.237 535.634 397.737 533.725 401.237 532.611L404.418 531.498L410.145 529.43L417.781 526.248C420.326 525.294 422.712 524.021 425.257 522.908L432.575 519.249L439.733 515.431L445.778 511.613C446.609 511.289 447.366 510.802 448.005 510.181L452.301 507.477L454.528 505.886L460.095 502.068L466.458 497.137C468.526 495.387 470.594 493.796 472.503 491.887L477.117 487.751L479.344 485.683C480.616 484.411 481.889 483.297 483.003 482.025L484.911 480.275C486.502 478.525 488.252 476.775 489.684 475.025L495.092 468.98L499.228 463.89C503.009 459.275 506.515 454.441 509.728 449.414C511 447.505 512.273 445.596 513.386 443.687L516.25 438.915C516.25 437.483 518 436.051 518.636 434.62L522.454 427.62L525.794 420.303C528.022 415.53 529.93 410.758 531.839 405.667C532.794 403.122 533.589 400.577 534.385 398.032H298.95C296.769 398.045 294.634 397.408 292.816 396.203C290.999 394.998 289.582 393.279 288.745 391.265C287.909 389.251 287.692 387.034 288.121 384.896C288.55 382.758 289.606 380.796 291.155 379.26L292.109 378.306L383.579 286.836C388.583 281.803 394.531 277.807 401.083 275.077C407.634 272.347 414.66 270.937 421.758 270.929H628.559C637.969 270.964 647.105 274.1 654.553 279.851C662.001 285.602 667.346 293.649 669.76 302.744C670.873 306.413 671.514 310.208 671.669 314.039Z" fill="url(#paint1_radial_177_4889)" fill-opacity="0.1"/>
<g style="mix-blend-mode:overlay" opacity="0.3">
<path d="M541.067 482.027C541.024 529.967 530.148 577.278 509.251 620.424C508.817 621.133 508.444 621.879 508.138 622.652C485.871 635.997 462.111 646.676 437.348 654.467C430.19 656.694 422.872 658.762 415.555 660.512L404.578 663.057L393.284 665.284L383.421 666.875H380.557H378.171L370.536 667.83H367.036C364.546 667.986 362.049 667.986 359.559 667.83H357.809C354.469 667.83 351.287 667.83 347.947 667.83H326.789H319.949H310.563H304.677H300.541L293.224 667.193H285.429L278.43 666.08H274.134L260.136 663.057L252.659 661.307L248.682 660.194L244.069 658.921C239.933 657.808 235.956 656.694 231.82 655.262L226.729 653.513L222.911 651.286L217.185 649.058L213.367 647.627L205.731 644.445L198.254 641.264C193.641 639.196 189.028 636.969 184.574 634.582H183.142L176.62 631.083C172.961 629.174 169.461 627.106 165.962 625.038L158.326 619.47H157.212L148.145 613.584H147.19C129.633 601.267 113.328 587.254 98.5127 571.747L150.054 520.205L188.392 481.868C207.686 501.34 230.659 516.783 255.975 527.297C281.291 537.811 308.444 543.187 335.857 543.113C344.206 543.073 352.545 542.542 360.832 541.522L367.513 540.727L372.285 539.772L378.33 538.658L385.171 537.227L390.579 535.636C394.238 535.636 397.738 533.727 401.238 532.614L404.419 531.5L410.146 529.432L417.782 526.25C420.331 525.27 422.827 524.155 425.258 522.91L432.576 519.251L439.734 515.433L445.779 511.615C446.61 511.291 447.367 510.805 448.006 510.184C449.508 509.398 450.944 508.494 452.301 507.479L454.529 505.889L460.096 502.071L466.459 497.139C468.527 495.389 470.595 493.799 472.504 491.89L477.118 487.754L479.345 485.686C480.642 484.547 481.865 483.325 483.003 482.027L484.912 480.277C486.503 478.527 488.253 476.777 489.685 475.027L495.093 468.982L499.229 463.892C503.01 459.277 506.516 454.443 509.728 449.416C511.001 447.507 512.274 445.598 513.387 443.689L516.251 438.917C516.251 437.485 518.001 436.053 518.637 434.622L522.455 427.622L525.795 420.305C528.022 415.532 529.931 410.76 531.84 405.67C538.014 430.651 541.113 456.294 541.067 482.027Z" fill="white" fill-opacity="0.1"/>
<path d="M300.222 398.352H530.089C517.241 351.191 493.667 307.637 461.208 271.09H419.53C413.136 271.053 406.799 272.301 400.896 274.76C394.994 277.22 389.645 280.84 385.169 285.407L292.109 378.467C290.386 380.049 289.189 382.119 288.678 384.401C288.167 386.683 288.367 389.066 289.25 391.231C290.133 393.396 291.658 395.239 293.62 396.512C295.581 397.785 297.885 398.427 300.222 398.352Z" fill="white" fill-opacity="0.1"/>
</g>
<g style="mix-blend-mode:overlay" opacity="0.61">
<path d="M566.205 104.536L490.325 180.416C488.487 182.185 486.035 183.174 483.484 183.174C480.933 183.174 478.482 182.185 476.644 180.416L469.645 174.053H468.213L462.645 169.758L453.896 163.395C441.406 154.412 427.962 146.836 413.808 140.806C393.467 132.768 372.001 127.938 350.177 126.489C324.893 88.8292 308.918 45.7016 303.567 0.658363H310.09H350.177H356.381H362.108H365.449H367.835H370.857H372.448H377.857C378.81 0.582222 379.767 0.582222 380.72 0.658363H381.993H386.924H387.879L395.832 2.09006H398.855L405.695 3.52176L409.99 4.47623L419.217 6.70331H420.171L429.716 9.40763L442.919 13.5437L450.237 16.248H451.828H452.782L461.054 19.4295L465.031 21.1794L468.372 22.452H469.485L478.076 26.4289L480.78 27.5425L482.848 28.497L484.916 29.6105L494.461 34.5419C497.96 36.2918 501.301 38.2007 504.642 40.2687H505.437C508.619 42.0186 511.641 43.9275 514.663 45.9955C532.497 57.3348 549.221 70.3307 564.614 84.8105C565.909 84.706 567.212 84.8577 568.449 85.2568C569.685 85.656 570.831 86.2948 571.821 87.1368C572.811 87.9788 573.625 89.0075 574.217 90.1641C574.809 91.3207 575.168 92.5827 575.272 93.8779C575.377 95.1731 575.225 96.4762 574.826 97.7128C574.427 98.9493 573.788 100.095 572.946 101.085C572.104 102.075 571.075 102.889 569.918 103.481C568.762 104.073 567.5 104.432 566.205 104.536Z" fill="white" fill-opacity="0.1"/>
</g>
<defs>
<linearGradient id="paint0_linear_177_4889" x1="353.353" y1="7.01896" x2="150.211" y2="538.498" gradientUnits="userSpaceOnUse">
<stop stop-color="#BF00B0"/>
<stop offset="0.02" stop-color="#C104B1"/>
<stop offset="0.23" stop-color="#DC2DBF"/>
<stop offset="0.42" stop-color="#EF4BC9"/>
<stop offset="0.58" stop-color="#FB5DCF"/>
<stop offset="0.7" stop-color="#FF64D1"/>
</linearGradient>
<radialGradient id="paint1_radial_177_4889" cx="0" cy="0" r="1" gradientUnits="userSpaceOnUse" gradientTransform="translate(425.575 274.269) scale(599.087 599.087)">
<stop stop-color="#344DF6"/>
<stop offset="0.18" stop-color="#3040C1"/>
<stop offset="0.34" stop-color="#2D3597"/>
<stop offset="0.49" stop-color="#2B2D79"/>
<stop offset="0.61" stop-color="#292967"/>
<stop offset="0.7" stop-color="#292760"/>
</radialGradient>
</defs>
</svg>
